<?xml version="1.0" standalone="no"?>
<!DOCTYPE svg PUBLIC "-//W3C//DTD SVG 20010904//EN"
 "http://www.w3.org/TR/2001/REC-SVG-20010904/DTD/svg10.dtd">
<svg version="1.0" xmlns="http://www.w3.org/2000/svg"
 width="248.000000pt" height="247.000000pt" viewBox="0 0 248.000000 247.000000"
 preserveAspectRatio="xMidYMid meet">
<metadata>
Created by potrace 1.15, written by Peter Selinger 2001-2017
</metadata>
<g transform="translate(0.000000,247.000000) scale(0.100000,-0.100000)"
fill="#000000" stroke="none">
<path d="M1070 2165 c-30 -7 -76 -23 -102 -34 -42 -18 -48 -24 -48 -49 0 -55
21 -59 123 -23 51 18 130 41 176 52 99 23 101 24 101 50 0 18 -7 19 -97 18
-54 0 -123 -7 -153 -14z"/>
<path d="M712 1994 c-135 -81 -182 -119 -182 -146 0 -28 91 -118 119 -118 25
0 52 13 84 40 12 10 64 52 115 94 52 43 92 84 92 94 0 28 -28 61 -70 82 -22
11 -41 20 -43 20 -2 0 -54 -30 -115 -66z"/>
<path d="M512 1668 c-52 -56 -172 -225 -178 -251 -5 -25 1 -36 42 -79 61 -62
78 -72 103 -58 26 13 188 240 197 274 5 23 -1 34 -48 81 -60 60 -84 67 -116
33z"/>
<path d="M2159 1655 c-8 -7 38 -261 51 -286 10 -18 18 -20 48 -16 19 4 40 11
45 16 12 12 -77 261 -100 279 -17 12 -36 16 -44 7z"/>
<path d="M2390 1305 c-12 -15 -33 -321 -23 -338 9 -16 52 36 67 81 16 46 21
166 10 235 -7 40 -31 50 -54 22z"/>
<path d="M2223 1280 c-14 -6 -24 -20 -27 -42 -13 -75 -38 -254 -40 -272 -3
-43 132 -42 149 2 3 9 9 83 12 163 l6 146 -24 6 c-31 9 -49 8 -76 -3z"/>
<path d="M143 832 c11 -102 77 -241 123 -259 34 -13 37 13 14 134 -13 65 -24
123 -26 130 -4 14 -47 37 -88 47 l-29 7 6 -59z"/>
<path d="M2340 874 c-32 -13 -43 -29 -103 -149 -72 -144 -71 -169 2 -90 46 51
97 128 129 197 31 67 31 67 -28 42z"/>
<path d="M2178 865 c-32 -6 -59 -13 -61 -16 -53 -66 -167 -261 -167 -285 0
-36 108 -23 154 19 23 20 146 254 146 276 0 17 -14 18 -72 6z"/>
<path d="M1551 528 c-46 -13 -90 -48 -145 -115 -50 -61 -58 -96 -25 -114 11
-6 62 -13 112 -16 l92 -5 71 73 c88 90 138 148 133 153 -7 7 -161 36 -183 35
-11 0 -36 -5 -55 -11z"/>
<path d="M1895 485 c-57 -26 -205 -179 -205 -212 0 -37 177 32 263 104 46 38
97 99 97 115 0 13 -123 8 -155 -7z"/>
</g>
</svg>
